<svg id="Capa_1" data-name="Capa 1" xmlns="http://www.w3.org/2000/svg" viewBox="0 0 186.63 90.76"><defs><style>.cls-1,.cls-2{fill:#fff;}.cls-2{fill-rule:evenodd;}</style></defs><path class="cls-1" d="M84.46,90.75H6.32A6.25,6.25,0,0,1,.08,84.51V6.44A6.25,6.25,0,0,1,6.32.2H84.46A6.25,6.25,0,0,1,90.7,6.44V84.51a6.25,6.25,0,0,1-6.24,6.24M6.32,2.19A4.25,4.25,0,0,0,2.07,6.44V84.51a4.25,4.25,0,0,0,4.25,4.25H84.46a4.25,4.25,0,0,0,4.25-4.25V6.44a4.25,4.25,0,0,0-4.25-4.25Z"/><path class="cls-2" d="M13,23.43h1.39V29c0,.63.06,1.07.06,1.32a2.29,2.29,0,0,0,.38.7,2.7,2.7,0,0,0,1.07.76,2.33,2.33,0,0,0,1.33.31,3.11,3.11,0,0,0,2-.63,2.27,2.27,0,0,0,.82-1.83V23.43h1.45v6.19a3.38,3.38,0,0,1-1.26,2.71,4.57,4.57,0,0,1-3,1,4.76,4.76,0,0,1-2-.37,3.9,3.9,0,0,1-1.58-1.2,2.33,2.33,0,0,1-.57-1A5.7,5.7,0,0,1,13,29.11Zm10.29,9.79V26.77h1.2v.76a4.23,4.23,0,0,1,1-.69,5.23,5.23,0,0,1,1-.19,2.31,2.31,0,0,1,1.7.57,2.15,2.15,0,0,1,.63,1.64v4.36H27.55v-4a1.67,1.67,0,0,0-.32-1.08,1.34,1.34,0,0,0-1-.38,1.72,1.72,0,0,0-.89.13,3.73,3.73,0,0,0-.82.69v4.68Zm7.14-8.4c0-.19,0-.44.19-.51a.66.66,0,0,1,.44-.25.7.7,0,0,1,.57.25.66.66,0,0,1,.25.51.63.63,0,0,1-.25.5c-.06.19-.31.19-.57.19a.42.42,0,0,1-.44-.19c-.19-.12-.19-.25-.19-.5m0,1.95h1.33v6.45H30.45Zm5.12,6.57-3.1-6.57h1.46l2,4.24,1.83-4.24h1.46l-3,6.57Zm9.92-.82a5.61,5.61,0,0,1-1.33.57,4.88,4.88,0,0,1-1.45.25,3.4,3.4,0,0,1-2.34-.88,3.5,3.5,0,0,1-1-2.59,3.14,3.14,0,0,1,.88-2.34,3,3,0,0,1,2.34-.88,2.66,2.66,0,0,1,2.27.88A3.41,3.41,0,0,1,45.61,30v.19h-4.8a2.17,2.17,0,0,0,.57,1.45,1.83,1.83,0,0,0,1.45.44,3.23,3.23,0,0,0,1.33-.19,4.58,4.58,0,0,0,1.33-.69ZM40.81,29.3h3.35a1.75,1.75,0,0,0-.44-1.2,1.8,1.8,0,0,0-1.14-.38,1.83,1.83,0,0,0-1.2.38,1.56,1.56,0,0,0-.57,1.2m6.06,3.92V26.77H48.2V28.1A4.78,4.78,0,0,1,49.09,27a1.88,1.88,0,0,1,1-.31,1.18,1.18,0,0,1,.63.12c.25.07.44.32.82.45l-.7,1.2a1.77,1.77,0,0,0-.63-.44,1,1,0,0,0-.57-.13,1,1,0,0,0-.88.44,1.81,1.81,0,0,0-.57,1.26v3.67Zm4.87-.44V31.45c.44.19.82.44,1.14.57a7.34,7.34,0,0,0,1,.19,2.27,2.27,0,0,0,.75-.19.6.6,0,0,0,.32-.57c0-.25-.32-.57-1.07-.88-.26-.13-.38-.26-.45-.26a9.72,9.72,0,0,1-1.26-.88,2.2,2.2,0,0,1-.31-1.14,1.82,1.82,0,0,1,.56-1.2A2.25,2.25,0,0,1,54,26.65a3,3,0,0,1,1.08.12,2.66,2.66,0,0,1,1,.32v1.33A6.72,6.72,0,0,0,55,27.85a2.4,2.4,0,0,0-1-.13c-.25,0-.5,0-.57.13a.66.66,0,0,0-.25.44c0,.38.44.7,1.33,1.14l.12.12a3.65,3.65,0,0,1,1.33.89,1.25,1.25,0,0,1,.38,1,1.85,1.85,0,0,1-.57,1.33,3,3,0,0,1-1.77.56,3.42,3.42,0,0,1-1.13-.12c-.32-.13-.76-.25-1.14-.44m5.81-8a.7.7,0,0,1,.25-.51.68.68,0,0,1,.45-.25,1,1,0,0,1,.56.25.93.93,0,0,1,.19.51.86.86,0,0,1-.19.5c-.12.19-.38.19-.56.19s-.38,0-.45-.19a.66.66,0,0,1-.25-.5m.13,1.95h1.2v6.45h-1.2Zm7.32,5V28.1c-.06-.12-.31-.25-.5-.38s-.44-.06-.82-.06a2.2,2.2,0,0,0-1.58.63A2.49,2.49,0,0,0,61.59,30a2.78,2.78,0,0,0,.51,1.64,2.42,2.42,0,0,0,1.58.57,1.56,1.56,0,0,0,.82-.13,1,1,0,0,0,.5-.31m0,1.13a3.12,3.12,0,0,0-.63.32,2.89,2.89,0,0,1-1,.12,3.2,3.2,0,0,1-2.21-.88A3.7,3.7,0,0,1,60.2,30a3.63,3.63,0,0,1,.95-2.47,2.57,2.57,0,0,1,2.21-.88,2,2,0,0,1,.89.12,1.36,1.36,0,0,1,.75.32V23.43h1.39v9.79H65Zm6.2-1V30a8,8,0,0,0-1.84.75.92.92,0,0,0-.44.76.7.7,0,0,0,.25.57c.19.25.45.25.76.25a1.46,1.46,0,0,0,.7-.12,3.62,3.62,0,0,1,.57-.32m.06.76a1.68,1.68,0,0,1-.89.44,2.55,2.55,0,0,1-1,.25A1.74,1.74,0,0,1,68,32.9a1.41,1.41,0,0,1-.45-1.13,1.63,1.63,0,0,1,.45-1.2,3.48,3.48,0,0,1,1.7-.95l1.46-.44v-.07c0-.12.06-.12.06-.25,0-.32-.06-.69-.32-.76a1.26,1.26,0,0,0-.88-.38,3.28,3.28,0,0,0-1.14.26,12.29,12.29,0,0,0-1.2.69V27.41a8.59,8.59,0,0,1,1.07-.57,3.69,3.69,0,0,1,1.39-.19,2.12,2.12,0,0,1,1.77.57c.44.31.57.88.57,1.77v2.65a.86.86,0,0,0,.13.44c0,.13.06.25.19.25a.41.41,0,0,0,.25-.12c.06,0,.19-.13.44-.32v.89a5.44,5.44,0,0,1-.82.44c-.19,0-.44.12-.63.12a.8.8,0,0,1-.57-.25c-.13,0-.25-.19-.25-.44m7.52-.88V28.1c-.26-.12-.45-.25-.7-.38s-.44-.06-.76-.06a2.2,2.2,0,0,0-1.58.63A2.54,2.54,0,0,0,75.18,30a2.89,2.89,0,0,0,.56,1.64,2.42,2.42,0,0,0,1.58.57,1.34,1.34,0,0,0,.76-.13,3.85,3.85,0,0,0,.7-.31m0,1.13a2.66,2.66,0,0,0-.83.32,2.73,2.73,0,0,1-1,.12,3.31,3.31,0,0,1-2.21-.88A3.65,3.65,0,0,1,73.85,30a3.58,3.58,0,0,1,.88-2.47,2.64,2.64,0,0,1,2.21-.88,2.73,2.73,0,0,1,1,.12c.26,0,.45.19.83.32V23.43H80v9.79H78.78ZM10.93,40.48h1.45v9.79H10.93Zm3.35,9.79V43.83h1.33v.76a1.87,1.87,0,0,1,.88-.63,3,3,0,0,1,1.14-.26,1.83,1.83,0,0,1,1.51.7,1.75,1.75,0,0,1,.7,1.64v4.23H18.51V46.36a1.94,1.94,0,0,0-.31-1.2,1.28,1.28,0,0,0-1-.32,1.25,1.25,0,0,0-.89.19,2.89,2.89,0,0,0-.69.57v4.67Zm11.56-1.45V45.28a.87.87,0,0,0-.63-.38,2.76,2.76,0,0,0-.7-.06,1.83,1.83,0,0,0-1.51.51,2.62,2.62,0,0,0-.57,1.7A2.38,2.38,0,0,0,23,48.7a2.17,2.17,0,0,0,1.51.56,2.76,2.76,0,0,0,.7-.06.87.87,0,0,0,.63-.38m0,1.14a4.53,4.53,0,0,1-.76.31,1.82,1.82,0,0,1-.88.13A3,3,0,0,1,22,49.52a3.15,3.15,0,0,1-.89-2.47A3.12,3.12,0,0,1,22,44.59a2.93,2.93,0,0,1,2.21-.89,1.82,1.82,0,0,1,.88.13,4.45,4.45,0,0,1,.76.32V40.48h1.39v9.79H25.84Zm7.26-.44a2,2,0,0,1-1,.63,2.73,2.73,0,0,1-1,.25,1.94,1.94,0,0,1-1.64-.69,1.85,1.85,0,0,1-.69-1.52V43.83h1.38v4A1.65,1.65,0,0,0,30.45,49a1.23,1.23,0,0,0,1,.31,4.15,4.15,0,0,0,.89-.06c.19-.25.44-.38.75-.7V43.83h1.27v6.44H33.1Zm2.47.31V48.5a5.44,5.44,0,0,0,1.13.57,2.59,2.59,0,0,0,1,.19,1.3,1.3,0,0,0,.76-.19.38.38,0,0,0,.26-.44c0-.38-.38-.69-1-1-.25-.13-.37-.13-.44-.25A3.08,3.08,0,0,1,36,46.48a1.6,1.6,0,0,1-.32-1,1.45,1.45,0,0,1,.57-1.32,2.18,2.18,0,0,1,1.52-.45,2.55,2.55,0,0,1,1,.13,3,3,0,0,1,1,.44v1.2a2.08,2.08,0,0,0-1-.44,2.56,2.56,0,0,0-1-.19c-.19,0-.44.06-.51.06a.4.4,0,0,0-.25.45c0,.37.44.69,1.33,1.13l.12.13a3.67,3.67,0,0,1,1.33.88,1.72,1.72,0,0,1,.38,1,1.8,1.8,0,0,1-.7,1.46,2.89,2.89,0,0,1-1.7.44,2.76,2.76,0,0,1-1.08-.13,2.94,2.94,0,0,1-1.13-.44m9.35.25a2.26,2.26,0,0,1-.63.19,1.36,1.36,0,0,1-.7.13c-.76,0-1.33-.13-1.52-.44a2.78,2.78,0,0,1-.44-1.9V44.9H40.5v-.06l2.21-2.46H43v1.45h2V44.9H43v3A3.62,3.62,0,0,0,43,49a1.88,1.88,0,0,0,.82.25c.19,0,.45,0,.57-.13s.32-.12.51-.25Zm1.13.19V43.83h1.27v1.45A4.28,4.28,0,0,1,48.26,44a1.57,1.57,0,0,1,1-.32c.19,0,.44.13.76.13a3.13,3.13,0,0,1,.7.57L50,45.47A6.57,6.57,0,0,1,49.4,45c-.19,0-.44-.13-.63-.13a1.69,1.69,0,0,0-1,.45,4.2,4.2,0,0,0-.5,1.26v3.66Zm5.25-8.33a.9.9,0,0,1,.25-.57c.06-.13.32-.13.57-.13a.52.52,0,0,1,.44.13.63.63,0,0,1,.19.57.74.74,0,0,1-.19.56.88.88,0,0,1-.44.19.94.94,0,0,1-.57-.19c-.13-.25-.25-.37-.25-.56m.12,1.89h1.33v6.44H51.42ZM57.55,49v-1.9a11.62,11.62,0,0,0-1.77.76.92.92,0,0,0-.44.82c0,.32,0,.44.19.63a1.51,1.51,0,0,0,.69.26c.19,0,.45-.13.64-.13a1.7,1.7,0,0,0,.69-.44m.13.76a4.1,4.1,0,0,1-1,.56,2,2,0,0,1-.89.13A1.82,1.82,0,0,1,54.45,50a1.37,1.37,0,0,1-.56-1.14,1.59,1.59,0,0,1,.56-1.2A4.76,4.76,0,0,1,56,46.74l1.58-.45v-.37a1.73,1.73,0,0,0-.19-.76c-.25-.26-.57-.26-1-.26a2,2,0,0,0-1.14.26,3.75,3.75,0,0,0-1.13.69V44.46a3.48,3.48,0,0,1,1.13-.5,4.89,4.89,0,0,1,1.33-.26,2.6,2.6,0,0,1,1.77.57c.5.32.57.89.57,1.77V48.7c0,.25,0,.5.12.56s.13.13.26.13.06,0,.19-.13a.83.83,0,0,0,.44-.19v.76a5.31,5.31,0,0,1-.76.44,1.33,1.33,0,0,1-.7.13c-.31,0-.44,0-.56-.13s-.19-.31-.19-.56m3-9.23h1.2v9.79h-1.2Zm11,8.34V45.28a.87.87,0,0,0-.63-.38,2.76,2.76,0,0,0-.7-.06,1.91,1.91,0,0,0-1.58.51,2.29,2.29,0,0,0-.5,1.7,2.1,2.1,0,0,0,.5,1.65,2.24,2.24,0,0,0,1.58.56,2.76,2.76,0,0,0,.7-.06.87.87,0,0,0,.63-.38m0,1.14c-.19.12-.5.19-.76.31a1.94,1.94,0,0,1-.88.13,3.28,3.28,0,0,1-2.34-.88,3.69,3.69,0,0,1-.88-2.47,3.65,3.65,0,0,1,.88-2.46,3.25,3.25,0,0,1,2.34-.89,2.07,2.07,0,0,1,.88.13c.26.13.57.19.76.32V40.48H73v9.79H71.7Zm8.59-.32a5.87,5.87,0,0,1-1.33.51,2.49,2.49,0,0,1-1.32.25,3.18,3.18,0,0,1-2.46-.88,3.49,3.49,0,0,1-.89-2.59,3.35,3.35,0,0,1,.76-2.34,3.57,3.57,0,0,1,2.33-.89,3.1,3.1,0,0,1,2.28.89,3.57,3.57,0,0,1,.76,2.46v.19h-4.8a2,2,0,0,0,.56,1.46,2,2,0,0,0,1.46.56A4.63,4.63,0,0,0,79,49.07a7,7,0,0,0,1.33-.82Zm-4.67-3.28H79a1.23,1.23,0,0,0-.44-1.08,1.25,1.25,0,0,0-1.14-.44,1.78,1.78,0,0,0-1.2.32,2.32,2.32,0,0,0-.56,1.2m-52,20.34V64.81A5,5,0,0,0,25,65.88a2.33,2.33,0,0,0,1.27.38,1.39,1.39,0,0,0,1.07-.38c.38-.19.45-.5.45-.95a2,2,0,0,0-.19-.82,12.61,12.61,0,0,0-1.46-1,16.33,16.33,0,0,1-2-1.64,2.61,2.61,0,0,1,.38-3.35,3.08,3.08,0,0,1,2.09-.7,3.57,3.57,0,0,1,1.13.13,10.83,10.83,0,0,1,1.08.57v1.58c-.45-.38-.89-.57-1.2-.82a3,3,0,0,0-1.14-.19,1.31,1.31,0,0,0-1,.31,1,1,0,0,0-.45.89c0,.44.57,1.13,1.84,1.77l.06.12a5.83,5.83,0,0,1,1.9,1.58A3.36,3.36,0,0,1,29.19,65a2.72,2.72,0,0,1-.76,1.83,3.18,3.18,0,0,1-2.09.76,4.87,4.87,0,0,1-1.45-.26c-.44-.06-.82-.44-1.26-.63m10-.57V64.24a4.51,4.51,0,0,0-1.77.69.91.91,0,0,0-.44.76,1.51,1.51,0,0,0,.19.69,2.53,2.53,0,0,0,.7.2c.31,0,.56,0,.69-.13a3.12,3.12,0,0,0,.63-.32m.13.76a2.4,2.4,0,0,1-1,.44,2,2,0,0,1-.89.13,2.54,2.54,0,0,1-1.32-.32A1.49,1.49,0,0,1,30,65.88a1.31,1.31,0,0,1,.57-1.07,2.67,2.67,0,0,1,1.64-.89l1.45-.57V63.1a1.22,1.22,0,0,0-.19-.88,2.16,2.16,0,0,0-1-.19,2.56,2.56,0,0,0-1,.19,3,3,0,0,0-1.26.69V61.65A4.18,4.18,0,0,1,31.34,61a5.12,5.12,0,0,1,1.32-.25,2.53,2.53,0,0,1,1.77.57c.51.32.57,1,.57,1.77v2.78c0,.25,0,.38.13.5s.12.07.25.07h.19c.12-.07.25-.19.44-.32v.76a1.58,1.58,0,0,1-.76.44,1.31,1.31,0,0,1-.69.13c-.32,0-.44,0-.57-.13a.58.58,0,0,1-.19-.44m2.9.44V60.89H38v.76c.32-.19.7-.44,1-.64a2.23,2.23,0,0,1,1-.25,2.28,2.28,0,0,1,1.65.7,2.51,2.51,0,0,1,.56,1.64v4.23h-1.2V63.48a1.38,1.38,0,0,0-.37-1.14c-.19-.31-.51-.44-1.08-.44a2.68,2.68,0,0,0-.82.19,2,2,0,0,0-.76.69v4.55Zm10.81-.06a2.23,2.23,0,0,0-.64.19h-.82A2.51,2.51,0,0,1,44.47,67a4.07,4.07,0,0,1-.44-1.9V62H43V61.9l2.33-2.46h.13v1.45h2V62h-2v3a1.67,1.67,0,0,0,.19,1c.13.25.32.25.76.25h.57c.12-.13.38-.13.57-.25Zm4.1-1.14V64.24a6.13,6.13,0,0,0-1.77.69.91.91,0,0,0-.44.76,1,1,0,0,0,.25.69,2.1,2.1,0,0,0,.76.2,1.35,1.35,0,0,0,.7-.13c.19-.07.44-.19.5-.32m.13.76a2.29,2.29,0,0,1-.89.44,3.27,3.27,0,0,1-2.33-.19,1.6,1.6,0,0,1-.44-1.26,1.36,1.36,0,0,1,.44-1.07,2.68,2.68,0,0,1,1.7-.89l1.39-.57v-.12a.13.13,0,0,0,.13-.13,1.24,1.24,0,0,0-.32-.88,1.62,1.62,0,0,0-.88-.19,3,3,0,0,0-1.14.19,2.86,2.86,0,0,0-1.2.69V61.65A3.23,3.23,0,0,1,49.28,61a5.57,5.57,0,0,1,1.39-.25,2.63,2.63,0,0,1,1.76.57A2.13,2.13,0,0,1,53,63.1v2.78a4.55,4.55,0,0,0,.07.5c0,.07.12.07.25.07h.19a5.82,5.82,0,0,1,.5-.32v.76a1.48,1.48,0,0,1-.82.44,1.11,1.11,0,0,1-.63.13c-.25,0-.44,0-.57-.13a.46.46,0,0,1-.25-.44m3,.44V60.89H56v.76A10.38,10.38,0,0,0,57,61a3.62,3.62,0,0,1,1-.25,2.3,2.3,0,0,1,1.71.7,2.85,2.85,0,0,1,.5,1.64v4.23H59V63.48a1.63,1.63,0,0,0-.31-1.14,1.3,1.3,0,0,0-1.14-.44,3.52,3.52,0,0,0-.76.19,1.77,1.77,0,0,0-.82.69v4.55Zm11.62-1.45V62.34A3.49,3.49,0,0,0,65.7,62a1.33,1.33,0,0,0-.7-.13,1.93,1.93,0,0,0-1.51.57,2.19,2.19,0,0,0-.57,1.64,2.26,2.26,0,0,0,.57,1.71,1.74,1.74,0,0,0,1.51.56h.7a2.31,2.31,0,0,0,.69-.5m0,1.14a1.12,1.12,0,0,1-.82.31,2.07,2.07,0,0,1-.88.13,2.75,2.75,0,0,1-2.34-.88,3.69,3.69,0,0,1-.88-2.47,3.14,3.14,0,0,1,.88-2.34,3,3,0,0,1,2.34-1,2.07,2.07,0,0,1,.88.13c.26.12.44.25.82.44V57.67h1.2v9.66h-1.2ZM75,66.7a3.35,3.35,0,0,1-1.4.63,4.81,4.81,0,0,1-1.45.26,2.92,2.92,0,0,1-2.34-1,3.6,3.6,0,0,1-1-2.59,3.64,3.64,0,0,1,.95-2.34,3.52,3.52,0,0,1,2.34-.89,3.32,3.32,0,0,1,2.21.89,3.71,3.71,0,0,1,.76,2.59v.12h-4.8a2.19,2.19,0,0,0,.56,1.46,2.37,2.37,0,0,0,1.46.56,4.73,4.73,0,0,0,1.32-.25c.45-.25,1-.44,1.4-.69Zm-4.74-3.22h3.34a1.8,1.8,0,0,0-.44-1.14,1.39,1.39,0,0,0-1.07-.44,1.78,1.78,0,0,0-1.27.44,1.45,1.45,0,0,0-.56,1.14m6.06,3.85V60.89h1.2v1.45a14.64,14.64,0,0,1,1-1.2,1.72,1.72,0,0,1,1-.38,1.65,1.65,0,0,1,.7.25,6.88,6.88,0,0,1,.76.45l-.7,1.07c-.19-.06-.44-.31-.63-.31a1,1,0,0,0-.57-.13,1,1,0,0,0-.88.44,3.26,3.26,0,0,0-.7,1.26v3.54Z"/><path class="cls-1" d="M180.16.2H102.08a6.25,6.25,0,0,0-6.23,6.24v78a6.25,6.25,0,0,0,6.23,6.24h78.08a6.33,6.33,0,0,0,6.24-6.24v-78A6.32,6.32,0,0,0,180.16.2ZM153.38,24.5V41.94h9.47V67.27a27.73,27.73,0,0,1-8.15,5.87,6.6,6.6,0,0,1-1.77.83,33,33,0,0,1-6.44,2V51h6.89V66.38a6.75,6.75,0,0,0,2-1.38V49h-8.91V14.9a33.25,33.25,0,0,1,11.24,4.48c.89.7,1.9,1.33,2.78,2a24.25,24.25,0,0,1,2.34,2.21V39.91h-7.32V25.83A9.52,9.52,0,0,0,153.38,24.5Zm-8.91-9.79V76.18a33.77,33.77,0,0,1-3.47.19,35,35,0,0,1-3.54-.19V14.71a32.4,32.4,0,0,1,3.54-.25A31.31,31.31,0,0,1,144.47,14.71Zm-16,51.55V17.17a1.61,1.61,0,0,1,.69-.25A23.84,23.84,0,0,1,135.44,15V75.86a29.88,29.88,0,0,1-10.93-4.36c-1-.69-1.9-1.32-2.78-2a26.26,26.26,0,0,1-2.46-2.21V23.62a31.19,31.19,0,0,1,7.26-5.44V64.93C127.16,65.38,127.86,65.82,128.49,66.26Z"/></svg>